<svg xmlns="http://www.w3.org/2000/svg" viewBox="0 0 400 300">
  <rect width="400" height="300" fill="#F5F0E8"/>
  <ellipse cx="200" cy="220" rx="120" ry="30" fill="#D4C5A9"/>
  <rect x="100" y="140" width="200" height="80" rx="10" fill="#C0392B"/>
  <rect x="90" y="130" width="220" height="20" rx="8" fill="#E74C3C"/>
  <ellipse cx="200" cy="145" rx="100" ry="12" fill="#E8B84A" opacity="0.8"/>
  <circle cx="160" cy="170" r="12" fill="#F39C12"/>
  <circle cx="200" cy="175" r="10" fill="#27AE60"/>
  <circle cx="240" cy="168" r="11" fill="#F39C12"/>
  <rect x="150" y="155" width="8" height="20" rx="2" fill="#8B4513"/>
  <rect x="210" y="158" width="6" height="18" rx="2" fill="#8B4513"/>
  <!-- sad face -->
  <circle cx="185" cy="185" r="4" fill="#2C3E50"/>
  <circle cx="215" cy="185" r="4" fill="#2C3E50"/>
  <path d="M185 198 Q200 192 215 198" stroke="#2C3E50" stroke-width="2.5" fill="none" stroke-linecap="round"/>
  <!-- steam -->
  <path d="M170 120 Q175 105 170 90" stroke="#BDC3C7" stroke-width="3" fill="none" stroke-linecap="round" opacity="0.5"/>
  <path d="M200 115 Q205 100 200 85" stroke="#BDC3C7" stroke-width="3" fill="none" stroke-linecap="round" opacity="0.5"/>
  <path d="M230 120 Q235 105 230 90" stroke="#BDC3C7" stroke-width="3" fill="none" stroke-linecap="round" opacity="0.5"/>
</svg>